<?xml version="1.0" encoding="utf-8"?>
<!-- Generator: Adobe Illustrator 27.2.0, SVG Export Plug-In . SVG Version: 6.00 Build 0)  -->
<svg version="1.1" xmlns="http://www.w3.org/2000/svg" xmlns:xlink="http://www.w3.org/1999/xlink" x="0px" y="0px"
	 viewBox="0 0 839.72 606.14" style="enable-background:new 0 0 839.72 606.14;" xml:space="preserve">
<style type="text/css">
	.st0{fill:none;}
	.st1{fill:#231F20;}
	.st2{font-family:'ArialMT';}
	.st3{font-size:12px;}
	.st4{fill:none;stroke:#EBEBEB;stroke-width:0.53;stroke-linejoin:round;stroke-miterlimit:10;}
	.st5{fill:none;stroke:#EBEBEB;stroke-width:1.07;stroke-linejoin:round;stroke-miterlimit:10;}
	.st6{fill:none;stroke:#E41A1C;stroke-width:1.07;stroke-linejoin:round;stroke-miterlimit:10;}
	.st7{fill:none;stroke:#984EA3;stroke-width:1.07;stroke-linejoin:round;stroke-miterlimit:10;}
	.st8{fill:none;stroke:#FF7F00;stroke-width:1.07;stroke-linejoin:round;stroke-miterlimit:10;}
	.st9{fill:none;stroke:#FFD92F;stroke-width:1.07;stroke-linejoin:round;stroke-miterlimit:10;}
	.st10{fill:none;stroke:#377EB8;stroke-width:1.07;stroke-linejoin:round;stroke-miterlimit:10;}
	.st11{fill:none;stroke:#4DAF4A;stroke-width:1.07;stroke-linejoin:round;stroke-miterlimit:10;}
	.st12{fill:#4D4D4D;}
	.st13{font-size:8.8px;}
	.st14{enable-background:new    ;}
	.st15{font-family:'Arial-BoldMT';}
	.st16{font-size:24px;}
	.st17{font-size:18px;}
	.st18{opacity:0.4;fill:#505050;}
	.st19{fill:#619CFF;}
	.st20{font-size:10px;}
	.st21{fill:#F8766D;}
	.st22{font-family:'Arial-ItalicMT';}
	.st23{font-size:8px;}
	.st24{font-size:14px;}
</style>
<g id="Layer_1">
	<rect x="72.23" y="143.25" class="st0" width="595.49" height="376.93"/>
	<text transform="matrix(1 0 0 1 72.235 151.8405)" class="st1 st2 st3">350</text>
	<line class="st4" x1="73.16" y1="461.24" x2="668.65" y2="461.24"/>
	<line class="st4" x1="73.16" y1="358.59" x2="668.65" y2="358.59"/>
	<line class="st4" x1="73.16" y1="255.94" x2="668.65" y2="255.94"/>
	<line class="st4" x1="73.16" y1="153.29" x2="668.65" y2="153.29"/>
	<line class="st5" x1="73.16" y1="409.92" x2="668.65" y2="409.92"/>
	<line class="st5" x1="73.16" y1="307.26" x2="668.65" y2="307.26"/>
	<line class="st5" x1="73.16" y1="204.61" x2="668.65" y2="204.61"/>
	<polyline class="st6" points="100.23,315.96 109.58,320.97 118.62,309.45 127.96,298.31 137.31,292.78 146.35,301.84 
		155.69,288.54 164.73,302.97 174.08,301.58 183.42,305.93 191.86,306.35 201.21,290.11 210.25,309.91 219.59,293.75 228.64,301.69 
		237.98,303.76 247.32,299.03 256.37,294.35 265.71,286.43 274.75,280.06 284.1,282.19 293.44,300.76 302.18,324.89 311.53,320.24 
		320.57,322.07 329.91,329.32 338.96,311.6 348.3,288.75 357.64,293.98 366.69,305.31 376.03,277.59 385.07,274.55 394.42,278.66 
		403.76,265.68 412.2,250.32 421.54,230.33 430.59,215.45 439.93,227.28 448.97,226.9 458.32,219.22 467.66,232.39 476.7,217.95 
		486.05,228.54 495.09,205.64 504.44,191.25 513.78,182.59 522.22,150.3 531.56,181.18 540.61,188.21 549.95,232.31 558.99,204 
		568.34,224.32 577.68,238.47 586.72,209.65 596.07,185.52 605.11,195.48 614.45,192.79 623.8,199.29 632.24,195.61 641.58,195.3 	
		"/>
	<polyline class="st7" points="100.23,426.88 109.58,428.65 118.62,421.05 127.96,421.3 137.31,420.39 146.35,424.82 155.69,424.47 
		164.73,436.49 174.08,426.83 183.42,424.41 191.86,420.72 201.21,417.33 210.25,421.63 219.59,417.64 228.64,415.45 237.98,417.99 
		247.32,420.33 256.37,420.83 265.71,419.06 274.75,419.72 284.1,416.65 293.44,425.41 302.18,432.88 311.53,427.5 320.57,424.25 
		329.91,421.65 338.96,412.19 348.3,405.22 357.64,403.29 366.69,410.48 376.03,402.68 385.07,399.81 394.42,408.72 403.76,400.35 
		412.2,393.51 421.54,402.06 430.59,397.01 439.93,404.25 448.97,401.06 458.32,391.82 467.66,393.85 476.7,376.13 486.05,382.64 
		495.09,386.45 504.44,387.62 513.78,385.29 522.22,374.87 531.56,391.83 540.61,395.77 549.95,397.12 558.99,382.53 568.34,390.51 
		577.68,401.72 586.72,390.99 596.07,380.73 605.11,390.54 614.45,390.32 623.8,395.66 632.24,391.47 641.58,389.09 	"/>
	<polyline class="st8" points="100.23,472.99 109.58,474.99 118.62,471.85 127.96,469.34 137.31,469.06 146.35,470.48 
		155.69,469.14 164.73,476.1 174.08,470.5 183.42,470.18 191.86,470.27 201.21,466.57 210.25,467.53 219.59,464.27 228.64,463.59 
		237.98,463.14 247.32,466.9 256.37,465.9 265.71,463.66 274.75,460.23 284.1,458 293.44,461.5 302.18,467.49 311.53,465.9 
		320.57,461.32 329.91,460.15 338.96,456.07 348.3,451.86 357.64,450.07 366.69,451.16 376.03,446.49 385.07,441.39 394.42,443.54 
		403.76,439.47 412.2,434.7 421.54,435.96 430.59,429.15 439.93,433.62 448.97,436.28 458.32,441.95 467.66,445.77 476.7,433.12 
		486.05,440.68 495.09,438.72 504.44,439.28 513.78,440.43 522.22,427.84 531.56,437.41 540.61,439.23 549.95,440.88 558.99,431.61 
		568.34,435.72 577.68,444.08 586.72,436.1 596.07,428.49 605.11,436 614.45,431.58 623.8,434.62 632.24,433.59 641.58,433.33 	"/>
	<polyline class="st9" points="100.23,490.45 109.58,490.75 118.62,488.38 127.96,487.19 137.31,487.23 146.35,489.01 
		155.69,487.72 164.73,491.31 174.08,490.09 183.42,487.7 191.86,486.97 201.21,485.32 210.25,487.09 219.59,486.1 228.64,488.48 
		237.98,489.64 247.32,488.87 256.37,488.52 265.71,488.09 274.75,487.81 284.1,486.45 293.44,488.46 302.18,492.96 311.53,489.91 
		320.57,488.08 329.91,488.71 338.96,488.16 348.3,486.41 357.64,485.99 366.69,485.56 376.03,481.76 385.07,481.52 394.42,483.22 
		403.76,481.24 412.2,479.58 421.54,478.1 430.59,478.31 439.93,479.64 448.97,479.39 458.32,479.18 467.66,482.04 476.7,475.44 
		486.05,476.99 495.09,473.97 504.44,477.44 513.78,477.76 522.22,474.13 531.56,477.32 540.61,479.94 549.95,482.74 558.99,479.38 
		568.34,480.08 577.68,485.22 586.72,482.74 596.07,479.01 605.11,480.77 614.45,480.83 623.8,481.27 632.24,481.84 641.58,482.28 	
		"/>
	<polyline class="st10" points="100.23,356.9 109.58,357.7 118.62,339.09 127.96,334.12 137.31,327.28 146.35,340.29 155.69,337.3 
		164.73,359.06 174.08,340.38 183.42,328.51 191.86,320.72 201.21,303.14 210.25,312.25 219.59,307.95 228.64,316.38 237.98,333.9 
		247.32,328.14 256.37,325.74 265.71,313.94 274.75,313.29 284.1,298.84 293.44,325.38 302.18,362.7 311.53,336.93 320.57,329.55 
		329.91,332.34 338.96,315.26 348.3,294.4 357.64,292.9 366.69,297.9 376.03,269.26 385.07,268.66 394.42,269.67 403.76,253.82 
		412.2,236.93 421.54,225.92 430.59,224.22 439.93,240.12 448.97,247.9 458.32,252.3 467.66,266.97 476.7,211.75 486.05,240.26 
		495.09,206.96 504.44,233.37 513.78,249.25 522.22,219.78 531.56,247.85 540.61,266.55 549.95,279.25 558.99,254.74 568.34,262.99 
		577.68,297.36 586.72,278.45 596.07,249.27 605.11,259.61 614.45,260.24 623.8,281.79 632.24,294.95 641.58,302.11 	"/>
	<polyline class="st11" points="100.23,366.02 109.58,367.13 118.62,358.7 127.96,357.95 137.31,345.42 146.35,362.47 
		155.69,354.71 164.73,370.67 174.08,349.28 183.42,340.42 191.86,340.93 201.21,330.83 210.25,341.37 219.59,338.97 228.64,327.85 
		237.98,346.31 247.32,346.29 256.37,342.72 265.71,331.91 274.75,326.98 284.1,328.39 293.44,348.52 302.18,367.79 311.53,348.54 
		320.57,338.2 329.91,339.02 338.96,334.62 348.3,315.03 357.64,310.48 366.69,330.68 376.03,303.08 385.07,298.83 394.42,309.86 
		403.76,301.15 412.2,286.31 421.54,284.59 430.59,281.88 439.93,286.81 448.97,288.01 458.32,289.98 467.66,311.36 476.7,264.77 
		486.05,270.68 495.09,253.96 504.44,261.53 513.78,260.1 522.22,232.11 531.56,272.07 540.61,286.96 549.95,293.63 558.99,279.24 
		568.34,282.1 577.68,312.58 586.72,310.2 596.07,289.37 605.11,300.01 614.45,302.96 623.8,299.79 632.24,305.97 641.58,311.49 	
		"/>
	<rect x="72.23" y="396.52" class="st0" width="28.18" height="10.41"/>
	<text transform="matrix(1 0 0 1 72.2346 406.8155)" class="st1 st2 st3">100</text>
	<rect x="72.23" y="293.87" class="st0" width="28.18" height="10.41"/>
	<text transform="matrix(1 0 0 1 72.2346 304.1651)" class="st1 st2 st3">200</text>
	<rect x="72.23" y="191.22" class="st0" width="28.18" height="10.41"/>
	<text transform="matrix(1 0 0 1 72.2346 201.5152)" class="st1 st2 st3">300</text>
	<text transform="matrix(1 0 0 1 73.0894 521.3292)" class="st12 st2 st13">2018-Apr</text>
	<text transform="matrix(1 0 0 1 128.2516 521.3292)" class="st12 st2 st13">2018-Oct</text>
	<text transform="matrix(1 0 0 1 183.1094 521.3292)" class="st12 st2 st13">2019-Apr</text>
	<text transform="matrix(1 0 0 1 238.2715 521.3292)" class="st12 st2 st13">2019-Oct</text>
	<text transform="matrix(1 0 0 1 293.4294 521.3292)" class="st12 st2 st13">2020-Apr</text>
	<text transform="matrix(1 0 0 1 348.5916 521.3292)" class="st12 st2 st13">2020-Oct</text>
	<text transform="matrix(1 0 0 1 403.4395 521.3292)" class="st12 st2 st13">2021-Apr</text>
	<text transform="matrix(1 0 0 1 458.6016 521.3292)" class="st12 st2 st13">2021-Oct</text>
	<text transform="matrix(1 0 0 1 513.4594 521.3292)" class="st12 st2 st13">2022-Apr</text>
	<text transform="matrix(1 0 0 1 568.6215 521.3292)" class="st12 st2 st13">2022-Oct</text>
	<text transform="matrix(1 0 0 1 623.4794 521.3292)" class="st12 st2 st13">2023-Apr</text>
	<text transform="matrix(1 0 0 1 646.1762 191.4589)" class="st14"><tspan x="0" y="0" class="st2 st13">Berkshire Hathaway </tspan><tspan x="0" y="10.56" class="st2 st13">(BNSF parent company)</tspan></text>
	<rect x="9.42" y="23.64" class="st0" width="836.92" height="70.59"/>
	<text transform="matrix(1 0 0 1 9.4193 44.2276)" class="st14"><tspan x="0" y="0" class="st15 st16">Not just Norfolk Southern</tspan><tspan x="0" y="21.6" class="st2 st17">The average Class 1 railroad stock price rose nearly 50% over five years </tspan><tspan x="0" y="43.2" class="st2 st17">despite major derailments and workers raising safety concerns  </tspan></text>
	<rect x="632.87" y="135.17" class="st18" width="5.87" height="366.97"/>
	<text transform="matrix(1 0 0 1 559.905 108.7605)"><tspan x="0" y="0" class="st19 st2 st20">Norfolk Southern</tspan><tspan x="75.04" y="0" class="st2 st20"> train derailment </tspan><tspan x="-5.01" y="12" class="st2 st20">and aftermath in East Palestine, OH</tspan></text>
	<rect x="390.72" y="135.17" class="st18" width="5.87" height="366.97"/>
	<text transform="matrix(1 0 0 1 325.3171 108.7606)"><tspan x="0" y="0" class="st21 st2 st20">BNSF</tspan><tspan x="26.67" y="0" class="st2 st20"> crude oil train derailment </tspan><tspan x="7.78" y="12" class="st2 st20">and aftermath in Custer, WA</tspan></text>
	<text transform="matrix(1 0 0 1 646.1758 305.514)" class="st2 st13">Norfolk Southern</text>
	<text transform="matrix(1 0 0 1 646.1761 321.9937)" class="st2 st13">Union Pacific </text>
	<text transform="matrix(1 0 0 1 646.1756 391.4202)" class="st2 st13">Canadian National Railway</text>
	<text transform="matrix(1 0 0 1 646.1762 438.4883)" class="st2 st13">Canadian Pacific Railway</text>
	<text transform="matrix(1 0 0 1 646.1761 487.4258)" class="st2 st13">CSX</text>
	<text transform="matrix(1 0 0 1 34.6631 555.3741)"><tspan x="0" y="0" class="st22 st23">Source: Yahoo! Finance</tspan><tspan x="0" y="9.6" class="st2 st23">*Kansas City Southern, the seventh Class 1 roadroad, merged with Canadian Pacific Railway in December 2021 </tspan></text>
	<text transform="matrix(1 0 0 1 43.1698 123.0314)" class="st15 st24">Price (USD)</text>
	<rect x="181.52" y="683.78" class="st0" width="222.86" height="149.26"/>
	<text transform="matrix(0.9451 0 0 1 181.523 687.1865)" class="st1 st2" style="font-size:4.7518px;">350</text>
	<line class="st4" x1="181.86" y1="809.7" x2="404.72" y2="809.7"/>
	<line class="st4" x1="181.86" y1="769.06" x2="404.72" y2="769.06"/>
	<line class="st4" x1="181.86" y1="728.41" x2="404.72" y2="728.41"/>
	<line class="st4" x1="181.86" y1="687.76" x2="404.72" y2="687.76"/>
	<line class="st4" x1="181.86" y1="789.38" x2="404.72" y2="789.38"/>
	<line class="st4" x1="181.86" y1="748.73" x2="404.72" y2="748.73"/>
	<line class="st4" x1="181.86" y1="708.08" x2="404.72" y2="708.08"/>
	<polyline class="st6" points="191.99,752.18 195.49,754.16 198.87,749.6 202.36,745.19 205.86,743 209.25,746.58 212.74,741.32 
		216.13,747.03 219.62,746.48 223.12,748.2 226.28,748.37 229.78,741.94 233.16,749.78 236.66,743.38 240.04,746.52 243.54,747.34 
		247.03,745.47 250.42,743.62 253.92,740.48 257.3,737.96 260.8,738.8 264.29,746.16 267.57,755.71 271.07,753.87 274.45,754.59 
		277.94,757.47 281.33,750.45 284.83,741.4 288.32,743.47 291.71,747.96 295.2,736.98 298.59,735.78 302.09,737.41 305.58,732.27 
		308.74,726.18 312.24,718.27 315.62,712.38 319.12,717.06 322.5,716.91 326,713.87 329.5,719.08 332.88,713.37 336.38,717.56 
		339.76,708.49 343.26,702.79 346.76,699.36 349.92,686.58 353.41,698.8 356.8,701.59 360.29,719.05 363.68,707.84 367.18,715.89 
		370.67,721.49 374.05,710.08 377.55,700.52 380.94,704.47 384.43,703.4 387.93,705.98 391.09,704.52 394.59,704.4 	"/>
	<polyline class="st7" points="191.99,796.1 195.49,796.8 198.87,793.79 202.36,793.89 205.86,793.53 209.25,795.28 212.74,795.14 
		216.13,799.9 219.62,796.08 223.12,795.12 226.28,793.66 229.78,792.32 233.16,794.02 236.66,792.44 240.04,791.57 243.54,792.58 
		247.03,793.5 250.42,793.7 253.92,793 257.3,793.26 260.8,792.05 264.29,795.52 267.57,798.47 271.07,796.34 274.45,795.06 
		277.94,794.03 281.33,790.28 284.83,787.52 288.32,786.76 291.71,789.6 295.2,786.52 298.59,785.38 302.09,788.91 305.58,785.59 
		308.74,782.88 312.24,786.27 315.62,784.27 319.12,787.14 322.5,785.87 326,782.21 329.5,783.02 332.88,776 336.38,778.58 
		339.76,780.09 343.26,780.55 346.76,779.63 349.92,775.5 353.41,782.22 356.8,783.78 360.29,784.31 363.68,778.54 367.18,781.7 
		370.67,786.14 374.05,781.89 377.55,777.82 380.94,781.71 384.43,781.62 387.93,783.74 391.09,782.08 394.59,781.13 	"/>
	<polyline class="st8" points="191.99,814.36 195.49,815.15 198.87,813.91 202.36,812.91 205.86,812.8 209.25,813.36 212.74,812.83 
		216.13,815.59 219.62,813.37 223.12,813.24 226.28,813.28 229.78,811.81 233.16,812.19 236.66,810.9 240.04,810.63 243.54,810.46 
		247.03,811.95 250.42,811.55 253.92,810.66 257.3,809.3 260.8,808.42 264.29,809.81 267.57,812.18 271.07,811.55 274.45,809.74 
		277.94,809.27 281.33,807.66 284.83,805.99 288.32,805.28 291.71,805.71 295.2,803.86 298.59,801.84 302.09,802.7 305.58,801.08 
		308.74,799.19 312.24,799.69 315.62,797 319.12,798.77 322.5,799.82 326,802.07 329.5,803.58 332.88,798.57 336.38,801.56 
		339.76,800.79 343.26,801.01 346.76,801.46 349.92,796.48 353.41,800.27 356.8,800.99 360.29,801.64 363.68,797.97 367.18,799.6 
		370.67,802.91 374.05,799.75 377.55,796.74 380.94,799.71 384.43,797.96 387.93,799.16 391.09,798.76 394.59,798.65 	"/>
	<polyline class="st9" points="191.99,821.27 195.49,821.39 198.87,820.45 202.36,819.98 205.86,820 209.25,820.7 212.74,820.19 
		216.13,821.61 219.62,821.13 223.12,820.18 226.28,819.89 229.78,819.24 233.16,819.94 236.66,819.55 240.04,820.49 243.54,820.95 
		247.03,820.65 250.42,820.51 253.92,820.34 257.3,820.23 260.8,819.69 264.29,820.48 267.57,822.26 271.07,821.06 274.45,820.33 
		277.94,820.58 281.33,820.36 284.83,819.67 288.32,819.5 291.71,819.33 295.2,817.83 298.59,817.73 302.09,818.41 305.58,817.62 
		308.74,816.97 312.24,816.38 315.62,816.46 319.12,816.99 322.5,816.89 326,816.81 329.5,817.94 332.88,815.33 336.38,815.94 
		339.76,814.75 343.26,816.12 346.76,816.25 349.92,814.81 353.41,816.07 356.8,817.11 360.29,818.22 363.68,816.89 367.18,817.16 
		370.67,819.2 374.05,818.22 377.55,816.74 380.94,817.44 384.43,817.46 387.93,817.64 391.09,817.86 394.59,818.04 	"/>
	<polyline class="st10" points="191.99,768.39 195.49,768.7 198.87,761.33 202.36,759.37 205.86,756.66 209.25,761.81 
		212.74,760.63 216.13,769.24 219.62,761.85 223.12,757.15 226.28,754.06 229.78,747.1 233.16,750.71 236.66,749 240.04,752.34 
		243.54,759.28 247.03,757 250.42,756.05 253.92,751.38 257.3,751.12 260.8,745.4 264.29,755.91 267.57,770.68 271.07,760.48 
		274.45,757.56 277.94,758.66 281.33,751.9 284.83,743.64 288.32,743.04 291.71,745.02 295.2,733.68 298.59,733.45 302.09,733.85 
		305.58,727.57 308.74,720.88 312.24,716.52 315.62,715.85 319.12,722.14 322.5,725.22 326,726.97 329.5,732.78 332.88,710.91 
		336.38,722.2 339.76,709.01 343.26,719.47 346.76,725.76 349.92,714.09 353.41,725.21 356.8,732.61 360.29,737.64 363.68,727.93 
		367.18,731.2 370.67,744.81 374.05,737.32 377.55,725.77 380.94,729.86 384.43,730.11 387.93,738.64 391.09,743.86 394.59,746.69 	
		"/>
	<polyline class="st11" points="191.99,772 195.49,772.44 198.87,769.1 202.36,768.8 205.86,763.84 209.25,770.59 212.74,767.52 
		216.13,773.84 219.62,765.37 223.12,761.86 226.28,762.06 229.78,758.06 233.16,762.24 236.66,761.29 240.04,756.88 243.54,764.19 
		247.03,764.19 250.42,762.77 253.92,758.49 257.3,756.54 260.8,757.1 264.29,765.07 267.57,772.7 271.07,765.08 274.45,760.98 
		277.94,761.31 281.33,759.56 284.83,751.81 288.32,750.01 291.71,758 295.2,747.08 298.59,745.39 302.09,749.76 305.58,746.31 
		308.74,740.43 312.24,739.75 315.62,738.68 319.12,740.63 322.5,741.11 326,741.89 329.5,750.35 332.88,731.91 336.38,734.25 
		339.76,727.62 343.26,730.62 346.76,730.06 349.92,718.97 353.41,734.8 356.8,740.69 360.29,743.33 363.68,737.63 367.18,738.77 
		370.67,750.84 374.05,749.89 377.55,741.65 380.94,745.86 384.43,747.03 387.93,745.77 391.09,748.22 394.59,750.41 	"/>
	<rect x="181.52" y="784.08" class="st0" width="10.55" height="4.12"/>
	<text transform="matrix(0.9451 0 0 1 181.523 788.1533)" class="st1 st2" style="font-size:4.7518px;">100</text>
	<rect x="181.52" y="743.43" class="st0" width="10.55" height="4.12"/>
	<text transform="matrix(0.9451 0 0 1 181.523 747.5059)" class="st1 st2" style="font-size:4.7518px;">200</text>
	<rect x="181.52" y="702.78" class="st0" width="10.55" height="4.12"/>
	<text transform="matrix(0.9451 0 0 1 181.523 706.8574)" class="st1 st2" style="font-size:4.7518px;">300</text>
	<text transform="matrix(0.9451 0 0 1 181.8287 833.4961)" class="st12 st2" style="font-size:3.4847px;">2018-Apr</text>
	<text transform="matrix(0.9451 0 0 1 202.4732 833.4961)" class="st12 st2" style="font-size:3.4847px;">2018-Oct</text>
	<text transform="matrix(0.9451 0 0 1 223.0035 833.4961)" class="st12 st2" style="font-size:3.4847px;">2019-Apr</text>
	<text transform="matrix(0.9451 0 0 1 243.648 833.4961)" class="st12 st2" style="font-size:3.4847px;">2019-Oct</text>
	<text transform="matrix(0.9451 0 0 1 264.2896 833.4961)" class="st12 st2" style="font-size:3.4847px;">2020-Apr</text>
	<text transform="matrix(0.9451 0 0 1 284.9352 833.4961)" class="st12 st2" style="font-size:3.4847px;">2020-Oct</text>
	<text transform="matrix(0.9451 0 0 1 305.4615 833.4961)" class="st12 st2" style="font-size:3.4847px;">2021-Apr</text>
	<text transform="matrix(0.9451 0 0 1 326.106 833.4961)" class="st12 st2" style="font-size:3.4847px;">2021-Oct</text>
	<text transform="matrix(0.9451 0 0 1 346.6353 833.4961)" class="st12 st2" style="font-size:3.4847px;">2022-Apr</text>
	<text transform="matrix(0.9451 0 0 1 367.2799 833.4961)" class="st12 st2" style="font-size:3.4847px;">2022-Oct</text>
	<text transform="matrix(0.9451 0 0 1 387.8102 833.4961)" class="st12 st2" style="font-size:3.4847px;">2023-Apr</text>
	<text transform="matrix(0.9451 0 0 1 344.9892 675.4686)" class="st14"><tspan x="0" y="0" class="st15" style="font-size:6px;">Berkshire Hathaway </tspan><tspan x="0" y="7.2" class="st15" style="font-size:6px;">(BNSF parent company)</tspan></text>
	<rect x="169.62" y="626.02" class="st0" width="358.82" height="32.76"/>
	<text transform="matrix(1 0 0 1 169.623 636.3112)" class="st14"><tspan x="0" y="0" class="st15 st3">Not just Norfolk Southern</tspan><tspan x="0" y="9.6" class="st2 st23">The average Class 1 railroad stock price rose nearly 50% over five </tspan><tspan x="0" y="19.2" class="st2 st23">years despite major derailments and workers raising safety concerns  </tspan></text>
	<text transform="matrix(0.9451 0 0 1 361.7113 725.8546)" class="st15" style="font-size:6px;">Norfolk Southern</text>
	<text transform="matrix(0.9451 0 0 1 357.0743 757.5967)" class="st15" style="font-size:6px;">Union Pacific </text>
	<text transform="matrix(0.9451 0 0 1 336.8633 772.9528)" class="st15" style="font-size:6px;">Canadian National Railway</text>
	<text transform="matrix(0.9451 0 0 1 340.6818 794.1232)" class="st15" style="font-size:6px;">Canadian Pacific Railway</text>
	<text transform="matrix(0.9451 0 0 1 366.2884 813.7515)" class="st15" style="font-size:6px;">CSX</text>
	<text transform="matrix(0.9451 0 0 1 167.4478 846.9766)"><tspan x="0" y="0" class="st22" style="font-size:3.1679px;">Source: Yahoo! Finance</tspan><tspan x="0" y="3.8" class="st2" style="font-size:3.1679px;">*Kansas City Southern, the seventh Class 1 roadroad, merged with Canadian Pacific Railway in December 2021 </tspan></text>
	<text transform="matrix(0.9451 0 0 1 170.6295 675.7783)" class="st15" style="font-size:5.5438px;">Price (USD)</text>
	<rect x="181.78" y="723.64" class="st0" width="9.89" height="10.04"/>
	<text transform="matrix(0.9451 0 0 1 181.7779 727.0427)" class="st1 st2" style="font-size:4.7518px;">250</text>
	<rect x="181.18" y="764.25" class="st0" width="222.86" height="149.26"/>
	<text transform="matrix(0.9451 0 0 1 181.1759 767.6575)" class="st1 st2" style="font-size:4.7518px;">150</text>
	<rect x="181.52" y="805.29" class="st0" width="222.86" height="149.26"/>
	<text transform="matrix(0.9451 0 0 1 181.523 808.6963)" class="st1 st2" style="font-size:4.7518px;">50</text>
	<rect x="72.23" y="245.06" class="st0" width="595.49" height="376.93"/>
	<text transform="matrix(1 0 0 1 72.235 253.6559)" class="st1 st2 st3">250</text>
	<rect x="74.58" y="348.02" class="st0" width="24.42" height="16.11"/>
	<text transform="matrix(0.9451 0 0 1 74.5813 356.6075)" class="st1 st2 st3">150</text>
	<rect x="72.23" y="448.16" class="st0" width="595.49" height="376.93"/>
	<text transform="matrix(1 0 0 1 72.2345 456.749)" class="st1 st2 st3">50</text>
</g>
<g id="ai2html-settings">
	<rect x="-450" y="6.59" class="st0" width="400" height="418"/>
	<text id="ai2html-settings_00000145051882129274830750000007594615257526512031_" transform="matrix(1 0 0 1 -450 17.2364)"><tspan x="0" y="0" style="font-family:'MyriadPro-Regular'; font-size:15px;">ai2html-settings</tspan><tspan x="0" y="19" style="font-family:'MyriadPro-Regular'; font-size:15px;">settings_version: 0.115.5</tspan><tspan x="0" y="38" style="font-family:'MyriadPro-Regular'; font-size:15px;">image_format: auto</tspan><tspan x="0" y="57" style="font-family:'MyriadPro-Regular'; font-size:15px;">responsiveness: fixed</tspan><tspan x="0" y="76" style="font-family:'MyriadPro-Regular'; font-size:15px;">output: one-file</tspan><tspan x="0" y="95" style="font-family:'MyriadPro-Regular'; font-size:15px;">html_output_path: /ai2html-output/</tspan><tspan x="0" y="114" style="font-family:'MyriadPro-Regular'; font-size:15px;">html_output_extension: .html</tspan><tspan x="0" y="133" style="font-family:'MyriadPro-Regular'; font-size:15px;">image_output_path: </tspan><tspan x="0" y="152" style="font-family:'MyriadPro-Regular'; font-size:15px;">local_preview_template: </tspan><tspan x="0" y="171" style="font-family:'MyriadPro-Regular'; font-size:15px;">png_number_of_colors: 128</tspan><tspan x="0" y="190" style="font-family:'MyriadPro-Regular'; font-size:15px;">jpg_quality: 60</tspan><tspan x="0" y="209" style="font-family:'MyriadPro-Regular'; font-size:15px;">headline: </tspan><tspan x="0" y="228" style="font-family:'MyriadPro-Regular'; font-size:15px;">leadin: </tspan><tspan x="0" y="247" style="font-family:'MyriadPro-Regular'; font-size:15px;">notes: </tspan><tspan x="0" y="266" style="font-family:'MyriadPro-Regular'; font-size:15px;">sources: </tspan><tspan x="0" y="285" style="font-family:'MyriadPro-Regular'; font-size:15px;">credit: </tspan></text>
</g>
</svg>
