<?xml version="1.0" encoding="utf-8"?>
<!-- Generator: Adobe Illustrator 27.2.0, SVG Export Plug-In . SVG Version: 6.00 Build 0)  -->
<svg version="1.1" xmlns="http://www.w3.org/2000/svg" xmlns:xlink="http://www.w3.org/1999/xlink" x="0px" y="0px"
	 viewBox="0 0 250 235.35" style="enable-background:new 0 0 250 235.35;" xml:space="preserve">
<style type="text/css">
	.st0{fill:none;}
	.st1{fill:none;stroke:#EBEBEB;stroke-width:1.07;stroke-linejoin:round;stroke-miterlimit:10;}
	.st2{stroke:#000000;stroke-width:0.71;stroke-linecap:round;stroke-linejoin:round;stroke-miterlimit:10;}
	.st3{fill:none;stroke:#808080;stroke-miterlimit:10;}
	.st4{fill:#808080;}
	.st5{opacity:0.2;}
	.st6{font-family:'ArialMT';}
	.st7{font-size:4.6105px;}
	.st8{fill:#4D4D4D;}
	.st9{font-size:3.675px;}
	.st10{font-family:'Arial-BoldMT';}
	.st11{font-size:5.0114px;}
	.st12{font-size:7px;}
	.st13{font-size:6px;}
	.st14{enable-background:new    ;}
	.st15{font-size:9px;}
	.st16{fill:none;stroke:#808080;stroke-width:0.5;stroke-miterlimit:10;}
	.st17{font-size:5px;}
	.st18{font-family:'Arial-ItalicMT';}
	.st19{font-size:3.3805px;}
</style>
<g id="Layer_1">
	<rect x="-32.34" y="-484.6" class="st0" width="539.88" height="385.63"/>
	<rect x="-32.34" y="-484.6" class="st0" width="539.88" height="385.63"/>
	<rect x="3.29" y="-459.6" class="st0" width="498.37" height="326.64"/>
	<line class="st1" x1="3.29" y1="-147.81" x2="501.66" y2="-147.81"/>
	<line class="st1" x1="3.29" y1="-258.85" x2="501.66" y2="-258.85"/>
	<line class="st1" x1="3.29" y1="-369.87" x2="501.66" y2="-369.87"/>
	<circle class="st2" cx="479.01" cy="-389.76" r="2.09"/>
	<circle class="st2" cx="463.46" cy="-396.09" r="2.09"/>
	<circle class="st2" cx="381.83" cy="-366.6" r="2.09"/>
	<circle class="st2" cx="378.81" cy="-425.55" r="2.09"/>
	<circle class="st2" cx="395.65" cy="-444.75" r="2.09"/>
	<text transform="matrix(1 0 0 1 465.8521 -398.24)" class="st6" style="font-size:11.8258px;">2018</text>
	<text transform="matrix(1 0 0 1 450.3082 -404.5701)" class="st6" style="font-size:11.8258px;">2019</text>
	<text transform="matrix(1 0 0 1 368.6744 -375.0808)" class="st6" style="font-size:11.8258px;">2020</text>
	<text transform="matrix(1 0 0 1 365.6539 -434.0388)" class="st6" style="font-size:11.8258px;">2021</text>
	<text transform="matrix(1 0 0 1 382.4928 -453.2341)" class="st6" style="font-size:11.8258px;">2022</text>
	<rect x="-32.34" y="-484.6" class="st0" width="539.88" height="385.63"/>
	<rect x="-12.47" y="-263.55" class="st0" width="10.49" height="11.15"/>
	<text transform="matrix(1 0 0 1 -12.4726 -255.4622)" class="st8 st6" style="font-size:9.4264px;">10</text>
	<rect x="-12.47" y="-374.59" class="st0" width="10.49" height="11.15"/>
	<text transform="matrix(1 0 0 1 -12.4726 -366.5002)" class="st8 st6" style="font-size:9.4264px;">20</text>
	<rect x="23.33" y="-129.02" class="st0" width="5.25" height="11.15"/>
	<text transform="matrix(1 0 0 1 23.3273 -120.9329)" class="st8 st6" style="font-size:9.4264px;">0</text>
	<rect x="126.06" y="-129.02" class="st0" width="15.74" height="11.15"/>
	<text transform="matrix(1 0 0 1 126.0597 -120.9329)" class="st8 st6" style="font-size:9.4264px;">250</text>
	<rect x="234.04" y="-129.02" class="st0" width="15.74" height="11.15"/>
	<text transform="matrix(1 0 0 1 234.0353 -120.9329)" class="st8 st6" style="font-size:9.4264px;">500</text>
	<rect x="342.01" y="-129.02" class="st0" width="15.74" height="11.15"/>
	<text transform="matrix(1 0 0 1 342.0103 -120.9329)" class="st8 st6" style="font-size:9.4264px;">750</text>
	<rect x="447.36" y="-129.02" class="st0" width="20.97" height="11.15"/>
	<text transform="matrix(1 0 0 1 447.3648 -120.9329)" class="st8 st6" style="font-size:9.4264px;">1000</text>
	<text transform="matrix(1 0 0 1 -31.3886 -429.2849)" class="st10" style="font-size:12.8542px;">Billions (USD)</text>
	<rect x="495.63" y="-116.46" class="st0" width="82.83" height="15.47"/>
	<text transform="matrix(1 0 0 1 495.6305 -107.262)" class="st10" style="font-size:12.8542px;">Derailments</text>
	<rect x="-108.81" y="-535.37" class="st0" width="736.59" height="58.48"/>
	<text transform="matrix(1 0 0 1 -108.8065 -524.6174)"><tspan x="0" y="0" class="st6" style="font-size:15.0157px;">Small federal fines for derailments and an oligopolistic Class 1 railroad industry means railway companies </tspan><tspan x="0" y="14.01" class="st6" style="font-size:15.0157px;">continue to make billions every year even as they risk the safety of workers and people who live near railroads.</tspan><tspan x="0" y="42.04" class="st6" style="font-size:12.0126px;">How much the six publicly traded Class 1 railroad companies made every year in total, compared to their total annual derailments: </tspan><tspan x="693.06" y="42.04" class="st6" style="font-size:14.0146px;">  </tspan></text>
	<rect x="-106.67" y="-583.33" class="st0" width="870.47" height="46.88"/>
	<text transform="matrix(1 0 0 1 -106.6715 -564.457)" class="st14"><tspan x="0" y="0" class="st10" style="font-size:22px;">Derailments did not stop railroads from raking in billions of dollars </tspan><tspan x="0" y="19" class="st10" style="font-size:22px;">in profits</tspan></text>
	<g>
		<g>
			<path class="st3" d="M488.97-379.62c6.56,8.29,8.53,17.75,4.9,24.34c-3.27,5.94-11.42,10.13-14.41,7.95
				c-3.58-2.61-1.05-15.36,3.26-16.31c6.96-1.54,25.57,26.03,16.77,37.47c-5.84,7.59-21.14,4.72-22.75,4.4"/>
			<g>
				<path class="st4" d="M487.34-381.55c0.4,1.21,0.75,2.83,0.7,4.05l1.1-1.82l2.01-0.69C489.95-380.22,488.43-380.9,487.34-381.55z
					"/>
			</g>
		</g>
	</g>
	<text transform="matrix(1 0 0 1 355.4534 -303.2551)"><tspan x="0" y="0" class="st6" style="font-size:12px;">In 2018, Class 1 trains derailed 1,049 times, </tspan><tspan x="0" y="14" class="st6" style="font-size:12px;">or nearly three trains a day. </tspan><tspan x="0" y="28" class="st6" style="font-size:12px;">They made nearly $22 billion in profits. </tspan><tspan x="208.78" y="28" class="st6" style="font-size:15px;"> </tspan></text>
	<text transform="matrix(1 0 0 1 112.7155 -426.8261)"><tspan x="0" y="0" class="st6" style="font-size:12px;">In 2018, the same trains derailed 856 times, </tspan><tspan x="0" y="14" class="st6" style="font-size:12px;">or about 2.5 trains a day. </tspan><tspan x="0" y="28" class="st6" style="font-size:12px;">They made nearly $27 billion in profits. </tspan><tspan x="208.78" y="28" class="st6" style="font-size:15px;"> </tspan></text>
	<g>
		<g>
			<path class="st3" d="M322.28-439.16c4.14-10.97,12.24-18.08,20.35-17.86c6.78,0.18,14.24,5.5,13.68,9.15
				c-0.68,4.38-13.17,7.98-15.99,4.59c-4.56-5.47,11.4-34.66,25.6-32.09c7.5,1.36,11.86,11.08,13.56,15.79"/>
			<g>
				<path class="st4" d="M380.27-457.17c-0.8-0.99-1.99-2.15-3.04-2.76l2.12,0.04l1.66-1.33
					C380.55-460.09,380.31-458.44,380.27-457.17z"/>
			</g>
		</g>
	</g>
	<rect x="109.6" y="-439.2" class="st5" width="241.24" height="46.81"/>
	<rect x="353.93" y="-316.31" class="st5" width="241.24" height="46.81"/>
	<rect x="5.66" y="46.55" class="st0" width="250.76" height="179.11"/>
	<rect x="5.66" y="46.55" class="st0" width="250.76" height="179.11"/>
	<rect x="16.84" y="65.12" class="st0" width="194.3" height="127.34"/>
	<line class="st1" x1="16.84" y1="186.67" x2="211.14" y2="186.67"/>
	<line class="st1" x1="16.84" y1="143.38" x2="211.14" y2="143.38"/>
	<line class="st1" x1="16.84" y1="100.09" x2="211.14" y2="100.09"/>
	<circle class="st2" cx="202.31" cy="92.34" r="0.81"/>
	<circle class="st2" cx="196.25" cy="89.88" r="0.81"/>
	<circle class="st2" cx="164.42" cy="101.37" r="0.81"/>
	<circle class="st2" cx="163.24" cy="78.39" r="0.81"/>
	<circle class="st2" cx="169.81" cy="70.9" r="0.81"/>
	<text transform="matrix(1 0 0 1 197.1785 89.0372)" class="st6 st7">2018</text>
	<text transform="matrix(1 0 0 1 185.4355 87.5509)" class="st6 st7">2019</text>
	<text transform="matrix(1 0 0 1 159.2927 98.0655)" class="st6 st7">2020</text>
	<text transform="matrix(1 0 0 1 158.115 75.0792)" class="st6 st7">2021</text>
	<text transform="matrix(1 0 0 1 164.6794 67.5968)" class="st6 st7">2022</text>
	<rect x="5.66" y="46.55" class="st0" width="250.76" height="179.11"/>
	<rect x="10.7" y="141.55" class="st0" width="4.09" height="4.35"/>
	<text transform="matrix(1 0 0 1 10.697 144.6993)" class="st8 st6 st9">10</text>
	<rect x="10.7" y="98.26" class="st0" width="4.09" height="4.35"/>
	<text transform="matrix(1 0 0 1 10.697 101.4103)" class="st8 st6 st9">20</text>
	<rect x="24.65" y="193.99" class="st0" width="2.05" height="4.35"/>
	<text transform="matrix(1 0 0 1 24.6541 197.1485)" class="st8 st6 st9">0</text>
	<rect x="64.71" y="193.99" class="st0" width="6.13" height="4.35"/>
	<text transform="matrix(1 0 0 1 64.7058 197.1485)" class="st8 st6 st9">250</text>
	<rect x="106.8" y="193.99" class="st0" width="6.13" height="4.35"/>
	<text transform="matrix(1 0 0 1 106.8015 197.1485)" class="st8 st6 st9">500</text>
	<rect x="148.9" y="193.99" class="st0" width="6.13" height="4.35"/>
	<text transform="matrix(1 0 0 1 148.8972 197.1485)" class="st8 st6 st9">750</text>
	<rect x="189.97" y="193.99" class="st0" width="8.18" height="4.35"/>
	<text transform="matrix(1 0 0 1 189.9705 197.1485)" class="st8 st6 st9">1000</text>
	<text transform="matrix(1 0 0 1 3.322 76.9337)" class="st10 st11">Billions (USD)</text>
	<rect x="213.88" y="185.51" class="st0" width="32.29" height="6.03"/>
	<text transform="matrix(1 0 0 1 213.8768 189.103)" class="st10 st11">Derailments</text>
	<rect x="4.31" y="23.26" class="st0" width="244.46" height="38.6"/>
	<text transform="matrix(1 0 0 1 4.3111 28.2771)"><tspan x="0" y="0" class="st6 st12">Small federal fines for derailments and an oligopolistic Class 1 railroad industry </tspan><tspan x="0" y="6" class="st6 st12">means railway companies continue to make billions every year even as they </tspan><tspan x="0" y="12" class="st6 st12">risk the safety of workers and people who live near railroads.</tspan><tspan x="0" y="24" class="st6 st13">How much the six publicly traded Class 1 railroad companies made every year in total, </tspan><tspan x="0" y="30" class="st6 st13">compared to their total annual derailments:   </tspan></text>
	<rect x="4.08" y="4.41" class="st0" width="288.89" height="16.7"/>
	<text transform="matrix(1 0 0 1 4.0818 12.1302)" class="st14"><tspan x="0" y="0" class="st10 st15">Derailments did not stop railroads from raking in </tspan><tspan x="0" y="8" class="st10 st15">billions of dollars in profits</tspan></text>
	<g>
		<g>
			<path class="st16" d="M206.37,96.52c2.42,3.18,3.12,6.76,1.73,9.27c-1.28,2.32-4.45,3.95-5.62,3.1c-1.4-1.02-0.41-5.99,1.27-6.36
				c2.71-0.6,9.97,10.15,6.54,14.61c-2.28,2.96-8.24,1.84-8.87,1.72"/>
			<g>
				<path class="st4" d="M205.55,95.54c0.2,0.6,0.37,1.42,0.35,2.02l0.55-0.91l1-0.35C206.86,96.21,206.1,95.87,205.55,95.54z"/>
			</g>
		</g>
	</g>
	<text transform="matrix(1 0 0 1 149.1384 126.0665)"><tspan x="0" y="0" class="st6 st17">In 2018, Class 1 trains derailed 1,049 times, </tspan><tspan x="0" y="5.46" class="st6 st17">or nearly three trains a day. </tspan><tspan x="0" y="10.92" class="st6 st17">They made nearly $22 billion in profits.  </tspan></text>
	<text transform="matrix(1 0 0 1 59.5037 77.8917)"><tspan x="0" y="0" class="st6 st17">In 2018, the same trains derailed 856 times, </tspan><tspan x="0" y="5.46" class="st6 st17">or about 2.5 trains a day. </tspan><tspan x="0" y="10.92" class="st6 st17">They made nearly $27 billion in profits.  </tspan></text>
	<g>
		<g>
			<path class="st16" d="M141.21,73.08c1.61-4.28,4.77-7.05,7.94-6.96c2.64,0.07,5.55,2.14,5.33,3.57
				c-0.26,1.71-5.13,3.11-6.24,1.79c-1.78-2.13,4.44-13.51,9.98-12.51c2.79,0.51,4.47,3.99,5.19,5.9"/>
			<g>
				<path class="st4" d="M163.81,66.06c-0.4-0.49-1-1.07-1.52-1.38l1.06,0.02l0.83-0.66C163.95,64.6,163.83,65.42,163.81,66.06z"/>
			</g>
		</g>
	</g>
	<rect x="58.39" y="72.55" class="st5" width="98.97" height="18.25"/>
	<rect x="148.75" y="120.98" class="st5" width="98.38" height="18.25"/>
	<text transform="matrix(1 0 0 1 -109.9242 -95.762)" class="st18" style="font-size:12px;">Source: Company financial filings, Federal Railroad Administration  </text>
	<text transform="matrix(1 0 0 1 5.1646 222.7215)" class="st18 st19">Source: Company financial filings, Federal Railroad Administration  </text>
	<rect x="19.99" y="-10.45" class="st0" width="100.68" height="26.77"/>
</g>
<g id="ai2html-settings">
	<rect x="-564.7" y="-589.65" class="st0" width="400" height="418"/>
	
		<text id="ai2html-settings_00000181767374985808347500000003927578454334691772_" transform="matrix(1 0 0 1 -564.7035 -579.0007)"><tspan x="0" y="0" style="font-family:'MyriadPro-Regular'; font-size:15px;">ai2html-settings</tspan><tspan x="0" y="19" style="font-family:'MyriadPro-Regular'; font-size:15px;">settings_version: 0.115.5</tspan><tspan x="0" y="38" style="font-family:'MyriadPro-Regular'; font-size:15px;">image_format: auto</tspan><tspan x="0" y="57" style="font-family:'MyriadPro-Regular'; font-size:15px;">responsiveness: fixed</tspan><tspan x="0" y="76" style="font-family:'MyriadPro-Regular'; font-size:15px;">output: one-file</tspan><tspan x="0" y="95" style="font-family:'MyriadPro-Regular'; font-size:15px;">html_output_path: /ai2html-output/</tspan><tspan x="0" y="114" style="font-family:'MyriadPro-Regular'; font-size:15px;">html_output_extension: .html</tspan><tspan x="0" y="133" style="font-family:'MyriadPro-Regular'; font-size:15px;">image_output_path: </tspan><tspan x="0" y="152" style="font-family:'MyriadPro-Regular'; font-size:15px;">local_preview_template: </tspan><tspan x="0" y="171" style="font-family:'MyriadPro-Regular'; font-size:15px;">png_number_of_colors: 128</tspan><tspan x="0" y="190" style="font-family:'MyriadPro-Regular'; font-size:15px;">jpg_quality: 60</tspan><tspan x="0" y="209" style="font-family:'MyriadPro-Regular'; font-size:15px;">headline: </tspan><tspan x="0" y="228" style="font-family:'MyriadPro-Regular'; font-size:15px;">leadin: </tspan><tspan x="0" y="247" style="font-family:'MyriadPro-Regular'; font-size:15px;">notes: </tspan><tspan x="0" y="266" style="font-family:'MyriadPro-Regular'; font-size:15px;">sources: </tspan><tspan x="0" y="285" style="font-family:'MyriadPro-Regular'; font-size:15px;">credit: </tspan></text>
</g>
</svg>
